<?xml version="1.0" encoding="UTF-8" standalone="no"?>
<!-- Created with Inkscape (http://www.inkscape.org/) -->

<svg
   version="1.1"
   id="svg1"
   width="350"
   height="350"
   viewBox="0 0 350 350"
   sodipodi:docname="printables.svg"
   inkscape:version="1.3.2 (091e20ef0f, 2023-11-25, custom)"
   xmlns:inkscape="http://www.inkscape.org/namespaces/inkscape"
   xmlns:sodipodi="http://sodipodi.sourceforge.net/DTD/sodipodi-0.dtd"
   xmlns="http://www.w3.org/2000/svg"
   xmlns:svg="http://www.w3.org/2000/svg">
  <defs
     id="defs1" />
  <sodipodi:namedview
     id="namedview1"
     pagecolor="#ffffff"
     bordercolor="#000000"
     borderopacity="0.25"
     inkscape:showpageshadow="2"
     inkscape:pageopacity="0.0"
     inkscape:pagecheckerboard="0"
     inkscape:deskcolor="#d1d1d1"
     inkscape:zoom="1.2505323"
     inkscape:cx="47.57974"
     inkscape:cy="109.15352"
     inkscape:window-width="1280"
     inkscape:window-height="940"
     inkscape:window-x="1920"
     inkscape:window-y="0"
     inkscape:window-maximized="1"
     inkscape:current-layer="svg1" />
  <path
     style="fill:#808080;stroke:none;fill-opacity:1"
     d="M 262,82 C 251.98874,67.335632 230.66177,58.301514 214,54.129639 157.39134,39.955597 95.838181,75.305481 84.606483,134 c -4.93827,25.80637 -1.088714,50.72824 11.166665,74 2.901641,5.50993 9.883142,19.09322 16.245372,20.89352 3.9953,1.13053 8.57156,-5.48361 10.98148,-7.89352 l 29,-29 43,-43 67,-67 m -26,39.10648 c -3.76414,1.02725 -7.34225,6.23577 -10,8.89352 l -22,22 -81,81 -25,25 c -2.368767,2.36877 -8.046295,6.29031 -8.046295,10 0,6.61249 15.041415,14.35104 20.046295,17.15277 23.53828,13.17673 51.71616,17.41687 78,10.96759 C 235.16231,284.54816 269.80841,239.81654 267.98148,191 267.23712,171.11084 260.99396,151.57724 250,135 c -2.39442,-3.61043 -8.6884,-15.34308 -14,-13.89352 z"
     id="path1" />
</svg>
